<svg xmlns="http://www.w3.org/2000/svg" version="1.0" preserveAspectRatio="xMidYMid" viewBox="10.16 7.18 309.76 314.71"><g fill="#0050b0"><path d="M143 7.6c-29.2 2.7-49.2 7.1-73.5 16.1-9.6 3.5-30.5 13.7-33.3 16.2-2.4 2.1-9.4 19.6-13.6 33.9-3.3 11.3-8 32.9-10.1 46.2-2.3 14.3-3.1 50.4-1.5 65.6 2.5 25.2 8.9 52.8 17.2 75.4 8.7 23.3 8.6 23.1 16.9 28.3 8.6 5.3 27.5 14.4 38.1 18.2 12 4.3 30.9 9.4 43.5 11.6 16.7 3 47.2 3.7 65.3 1.5 33.2-3.9 72.1-17.1 95.1-32.3l6.7-4.4 4.5-12.2c23.9-64.8 27.6-117.4 13-180.7-3.2-13.9-9.5-34.3-13.7-44.2-2.3-5.4-4.8-7.3-18.6-14.3C252.5 19.3 222.4 11 190 8c-10.5-.9-38.5-1.1-47-.4m50 8.9c33.4 3.9 60.3 11.7 85.5 24.8l10 5.2 3.7 9.5c8.1 20.9 15.6 52.3 17.9 75 1.6 14.8 1.5 46.5 0 60-2.8 24.5-10.4 54.9-18.9 75.8-2.5 6.2-5.6 12.3-6.9 13.6-3.6 3.6-26.5 14.9-40.3 19.9-16.8 6.1-29.4 9.1-48 11.8-13.3 1.8-18.5 2.1-36.5 1.6-29.3-.7-48.1-4.1-72.7-13.3-13.5-5-38.5-17.3-41.2-20.3S35.3 258 30.5 242c-17.6-59-16.4-116.8 3.4-176 7.1-21 6.2-19.8 19.2-26.3 24.5-12.3 53.4-20.4 83.9-23.5 13.8-1.5 42.4-1.3 56 .3"/><path d="M149.8 41.9c-26.4 8.5-37.5 36.6-24.5 61.8.9 1.6 5.4 7.8 10.1 13.6 10.8 13.5 14.8 20.4 19.1 32.7 5.2 15.1 6.4 22.6 7.6 47 1.4 30.9 1.8 35 3.3 35 1 0 1.4-5.7 2-23.8 1.3-49.4 6.2-64.5 31.2-96.7 2.6-3.3 6.1-8.9 7.8-12.5 2.8-5.9 3-7.4 3.1-17 0-9.8-.2-11-3.2-17.2-5.4-11.5-15.8-20-28.8-23.4-7.1-2-20.8-1.7-27.7.5"/><path d="M87.7 110.6c-7.7 1.8-11.1 3.7-17.3 9.6-7.6 7.2-10.8 14.8-10.7 25.8.1 12.8 4.2 20.9 13.7 27.5 4.3 2.9 8.3 4.3 22.7 7.9 9.7 2.4 20.9 5.9 25 7.8q20.85 9.75 28.5 34.5c2.3 7.6 2.7 8.3 5.1 8.3h2.6l-.6-24.8c-.5-24.4-1.4-32.5-5.2-47.2-3.8-14.9-13.7-31-24.3-39.6-7-5.7-11.5-8-19.4-9.9-7.6-1.8-12.5-1.8-20.1.1m134.6-.1c-9 2-15.6 5.9-24.3 14.5-17.7 17.5-25 43.6-25 89.2v17.9l2.6-.3c2.3-.3 2.9-1 4-5.8.8-3 3.2-9.1 5.4-13.5 8-16.5 20.3-24.4 47.8-30.9 17.6-4.1 23.1-6.6 29.1-13.1 6.6-7.2 8.5-12.3 8.6-23 0-11-2.6-17.4-10-24.8-5.7-5.7-10.2-8.2-18.7-10.2-7.6-1.8-11.3-1.8-19.5 0"/><path d="M60.6 177.2c-2 14.9-1 24.4 3.2 32.1 6.7 12.3 19.7 16.2 39.8 12.1 11.2-2.3 22.7-1.6 28.5 1.8 2.4 1.4 5.4 4 6.7 5.7 1.5 2.1 3.1 3.1 4.8 3.1 2.4 0 2.5-.3 1.9-3.3-2.1-9.8-9.5-22.1-16.9-28-7.6-6-15.7-9.4-30.6-12.7-7.4-1.6-14.9-3.3-16.5-3.8-4.2-1.3-13.4-6-17.2-8.9l-3.2-2.4zm205.3-1.3c-6.5 5-17 8.7-35.9 12.7-7.2 1.4-15 3.8-18.5 5.5-14.1 6.9-23.4 19-26.9 35.1-.6 2.5-.4 2.8 2.1 2.8 2 0 3.6-1 5.6-3.5 6.4-8 19.2-10.4 36.7-7 11 2.1 20.8 1.7 26.5-1.3 8.3-4.3 14.1-13.3 15.2-23.7.7-6.2-.5-22.5-1.7-22.5-.4 0-1.8.8-3.1 1.9M82.6 266.1c-4.1 12.7-4.2 12.1 4.3 14.1 7 1.5 10.4-.1 10.9-5.1.2-1.8-.1-3.8-.7-4.4s-.3-1.5 1.1-2.6c2.6-2.2 2.7-7 .2-8.8-1-.7-3.6-1.8-5.7-2.4-2.1-.5-4.4-1.2-5.2-1.5-1-.4-2.3 2.5-4.9 10.7m11.8-4.8c2.5 1.9 1.7 5.1-1.4 5.5-3.7.3-5.4-1.1-4.6-4.2.7-2.9 3.1-3.4 6-1.3m-4.6 8.8c5.1 1.7 5.3 6.9.3 6.9-4.2 0-5.4-1.3-4.6-4.9.4-1.7.8-3.1.9-3.1.2 0 1.7.5 3.4 1.1M237 258c-2.4.6-2.5.9-3.2 12.5-.5 6.5-.7 12-.5 12.1.2.2 1.3.1 2.5-.3 1.6-.4 2.2-1.3 2.2-3.3 0-2.3.6-2.9 4.1-3.9 2.3-.7 4.2-1.1 4.4-.9.1.2.7 1.3 1.3 2.4.8 1.6 1.8 2 3.7 1.7 1.4-.3 2.5-.9 2.5-1.3 0-.9-12.7-18.7-13.8-19.3-.4-.2-1.8-.1-3.2.3m5 8.6c2.5 4 2.5 4-1.3 4.9-2.7.7-2.7.6-2.7-3.9 0-2.5.4-4.6.9-4.6s1.9 1.6 3.1 3.6m-28.2-4c-7.7 4.1-7.5 16.9.2 20.9 3.7 1.9 8.1 1.9 12.6 0 3.7-1.5 4.3-4.3.8-3.7-8.4 1.6-10.1 1.4-12.3-1.3-4.7-6.1-1.5-13.5 5.9-13.5 3.3 0 4-.3 4-2s-.7-2-4.2-2c-2.4.1-5.5.7-7 1.6m-108.1 9.7c-3.1 5.7-5.7 10.6-5.7 11 0 1.6 5 .6 6-1.3 2-3.6 9.7-2.2 10.2 1.9.2 2 .9 2.7 2.9 2.9l2.6.3-2.3-12.3c-1.3-6.8-2.3-12.4-2.4-12.6 0-.1-1.2-.2-2.8-.2-2.4 0-3.3 1.1-8.5 10.3m9.1 4.2c-.2.2-1.5.1-2.9-.3l-2.6-.7 2.1-4.5 2-4.5.9 4.8c.5 2.6.7 5 .5 5.2m14.2-10.8c0 .5-.7 4.8-1.5 9.8-2 12.2-2 12.7.8 12.3 1.9-.3 2.3-1.1 3.2-7.8l1-7.5 4.5 8.7c3.9 7.7 4.8 8.8 7.1 8.8 2.6 0 2.6 0 3.3-10.5.4-5.8.9-11.2 1.2-12 .5-1.1-.1-1.5-1.9-1.5-2.7 0-3.7 2.7-3.7 10.6 0 2.4-.4 4.4-.8 4.4s-2.4-3.6-4.4-8c-3.2-7-4-8-6.2-8-1.4 0-2.6.3-2.6.7m60.1 0-3.3.4.6 7.2c.4 4 1 9.4 1.3 12l.6 4.8 4.6-.6c7.3-1 8.9-1.4 10.5-3.1 2.3-2.2 2.1-8-.3-9.6-1.4-1-1.7-1.8-1-2.8 1.4-2.4 1-4.9-1.1-7-2-2-4.2-2.2-11.9-1.3m8.9 4.8c1.7 2 .5 3.3-3.8 4.1-3.1.6-3.2.5-3.2-2.5 0-2.8.3-3.1 2.9-3.1 1.6 0 3.4.7 4.1 1.5m2.4 9.7c1.4 2.3-.7 4.3-5.1 5.1-3.3.6-3.3.6-3.3-3.4s0-4 3.6-3.7c2.2.2 4.2 1 4.8 2m-46.7-5c-1.2 14.7-1.1 15.8 1.7 15.8 2.2 0 2.5-.5 2.8-4.7.2-2.5.8-4.8 1.3-5 .6-.1 2.5 2 4.3 4.7 2.7 4.1 3.7 5 6.2 5h2.9l-4.4-6.4c-2.5-3.5-4.5-6.8-4.5-7.2.1-.5 2.1-2.9 4.5-5.4l4.5-4.5-2.7-.3c-2.2-.3-3.5.6-7.4 5l-4.7 5.3.6-5.3c.4-5 .4-5.2-2-5.2s-2.5.3-3.1 8.2"/></g><path style="fill:#fff;stroke-width:.775194" d="M151.245 313.023c-26.478-1.455-43.69-5.087-66.807-14.095-12.601-4.911-35.37-16.23-38.063-18.923-6.014-6.014-19.555-47.81-23.72-73.213-3.218-19.633-3.564-24.211-3.572-47.286-.009-23.843.751-32.889 4.364-51.938 4.731-24.953 14.665-56.076 19.492-61.073 2.663-2.757 15.155-9.129 27.67-14.115 10.241-4.08 23.533-8.085 36.063-10.865 51.017-11.32 109.257-6.57 155.645 12.696 11.482 4.769 25.24 11.989 26.175 13.737 1.729 3.23 7.059 18.326 10.073 28.53 3.785 12.814 8.087 32.617 10.112 46.55 1.972 13.568 2.785 44.13 1.6 60.13-2.155 29.076-12.347 69.666-22.724 90.497-3.637 7.301-5.3 8.61-20.265 15.94-38.2 18.715-73.213 25.783-116.043 23.428m7.259-26.58c.368-2.451.955-4.457 1.304-4.457s1.412 1.134 2.362 2.52c3.504 5.11 5.53 6.783 8.213 6.783 1.412 0 2.568-.178 2.568-.396 0-.217-1.98-3.371-4.402-7.009l-4.4-6.613 4.55-4.599c2.503-2.53 4.309-4.84 4.014-5.136-.296-.295-1.648-.537-3.004-.537-2 0-3.239.83-6.55 4.388l-4.085 4.387-.232-4.452c-.204-3.9-.442-4.482-1.924-4.693-1.042-.148-1.992.32-2.474 1.222-.93 1.738-2.084 20.41-1.375 22.258.331.862 1.195 1.203 2.63 1.038 1.962-.226 2.19-.609 2.805-4.703m-12.035 2.714c.387-.746.939-4.67 1.226-8.721.287-4.05.729-9.05.982-11.109l.459-3.744-2.222.256c-2.964.341-4.17 2.928-4.184 8.977-.006 2.664-.282 4.845-.612 4.845s-2.247-3.314-4.259-7.365c-3.555-7.158-3.732-7.364-6.314-7.364-3.02 0-2.664-.934-4.786 12.541-1.445 9.171-1.206 10.948 1.42 10.575 1.926-.273 3.17-3.405 4.091-10.294l.514-3.844 3.79 7.332c2.083 4.032 4.385 7.768 5.114 8.302 1.875 1.37 3.955 1.202 4.78-.387m51.783-.275c2.252-.434 4.61-1.461 5.426-2.363 1.869-2.065 1.947-7.69.135-9.691-.97-1.072-1.196-2.279-.874-4.674.37-2.755.14-3.52-1.564-5.225-1.646-1.646-2.718-1.996-6.102-1.989-2.258.005-5.44.23-7.07.499l-2.964.49.424 3.571c.233 1.964.83 7.519 1.326 12.343l.902 8.77 3.189-.48c1.754-.265 4.98-.828 7.172-1.25m-76.509-2.826c-.024-.746-1.004-6.415-2.178-12.597l-2.133-11.24-2.841-.24c-2.677-.225-2.993 0-5.45 3.876-4.482 7.072-9.847 17.41-9.312 17.945 1.102 1.101 4.12.42 6.314-1.426 1.266-1.066 3.228-1.938 4.358-1.938 2.218 0 5.86 3.075 5.86 4.946 0 1.117 1.35 1.76 4.07 1.94.825.055 1.34-.442 1.312-1.266m104.5-2.162c2.765-1.155 4.036-2.332 4.06-3.759.007-.387-2.532-.458-5.794-.162-6.572.595-8.317.007-10.077-3.398-2.779-5.372.096-10.322 6.487-11.17 6.538-.867 5.978-4.677-.665-4.526-4.494.103-7.95 1.79-10.4 5.079-2.3 3.084-2.314 11.108-.026 14.227 3.368 4.592 10.465 6.195 16.415 3.71m10.598-1.603c.674-.259 1.231-1.218 1.238-2.132.018-2.6 1.035-3.614 4.71-4.7 3.37-.994 3.429-.979 4.76 1.21 1.47 2.418 3.367 2.807 5.627 1.155 1.37-1.001 1.112-1.544-4.557-9.619-3.305-4.706-6.659-9.145-7.453-9.864-1.804-1.632-5.924-.927-6.575 1.126-.355 1.12-1.832 18.22-1.928 22.325-.024 1.027 2.131 1.284 4.178.499m-141.228-2.607c2.183-1.717 3.2-5.333 2.233-7.946-.47-1.27-.22-2.314.925-3.863 1.982-2.68 2.02-6.467.084-8.352-2.17-2.113-11.145-4.884-12.412-3.833-.878.73-5.71 14.4-6.76 19.128-.558 2.516 1.626 4.628 5.67 5.487 5.551 1.178 8.175 1.019 10.26-.62m50.206-49.6c0-3.123-3.12-11.48-6.297-16.864-3.417-5.792-12.4-14.769-17.53-17.517-5.936-3.18-13.66-5.643-28.499-9.089-13.685-3.177-20.386-5.85-28.273-11.275-2.22-1.527-4.144-2.661-4.277-2.522-.132.14-.645 4.103-1.139 8.807-2.069 19.72 3.207 33.06 15.362 38.843 5.756 2.74 16.564 3.349 27.049 1.526 9.078-1.579 20.39-1.611 25.567-.074 2.8.832 5.439 2.523 9.07 5.814 5.96 5.4 8.967 6.189 8.967 2.35m11.618-7.206c-.02-18.443-1.479-42.656-3.117-51.745-3.789-21.016-12.247-37.6-25.255-49.52-12.078-11.068-27.843-15.066-42.952-10.894-7.097 1.96-11.6 4.76-17.352 10.791-7.545 7.91-10.351 17.28-8.94 29.857.853 7.615 3.477 13.288 8.438 18.25 5.12 5.12 10.84 7.709 25.622 11.598 6.608 1.739 14.806 4.062 18.217 5.163 19.966 6.445 31.013 18.018 37.987 39.794 1.732 5.409 2.388 6.202 5.131 6.202h2.23zm8.86 8.222c.269-.7.832-9.683 1.252-19.96 2.185-53.438 5.776-65.174 29.797-97.37 3.34-4.478 7.47-11.045 9.18-14.594l3.108-6.454.07-10.658.068-10.657-3.285-6.632c-5.752-11.61-14.154-18.932-26.172-22.808-5.289-1.705-7.57-1.995-15.504-1.97-10.514.035-16.058 1.213-22.915 4.868-16.7 8.9-25.333 27.668-21.353 46.424 1.697 7.998 4.698 13.662 12.524 23.643 12.277 15.657 16.261 22.226 20.598 33.961 5.34 14.45 6.948 25.004 8.415 55.186 1.127 23.186 1.685 28.295 3.088 28.295.352 0 .86-.573 1.129-1.274m11.11.635c.532-.338 1.984-3.622 3.227-7.298 4.853-14.358 11.4-24.056 20.336-30.124 7.583-5.15 14.143-7.643 33.609-12.776 7.248-1.911 15.38-4.503 18.073-5.76 5.957-2.779 12.402-9.204 15.441-15.394 2.02-4.114 2.145-4.969 2.145-14.83 0-9.661-.156-10.798-2.023-14.778-2.717-5.793-10.384-13.854-15.976-16.797-12.188-6.413-27.419-6.414-40.443-.003-5.89 2.9-17.315 13.355-21.773 19.926-6.823 10.056-11.104 21.18-13.924 36.177-2.366 12.58-3.147 23.47-3.148 43.885v18.41l1.744-.011c.96-.007 2.18-.289 2.712-.627m15.413-3.33c6.46-5.85 9.878-7.138 19.956-7.519 5.724-.216 11.142.118 16.881 1.042 16.376 2.634 26.181.546 33.202-7.07 6.881-7.466 9.287-16.846 8.01-31.234-.423-4.771-1.087-8.993-1.476-9.38-.424-.424-2.773.625-5.886 2.628-6.118 3.937-15.562 7.207-31.386 10.87-12.971 3-20.005 5.363-25.542 8.578-5.663 3.288-13.433 11.589-16.697 17.837-3.161 6.05-6.48 16.166-5.711 17.41 1.159 1.874 4.395.691 8.65-3.161"/><path style="fill:#fff;stroke-width:.775194" d="M192.33 282.133c0-3.738.375-4.067 3.822-3.363 5.485 1.122 4.847 5.113-.968 6.057l-2.853.463zm-.775-10.123c0-2.143.255-2.427 2.178-2.427 2.834 0 5.509 1.894 4.345 3.077-.464.47-2.12 1.063-3.683 1.316-2.763.449-2.84.396-2.84-1.966m47.029-1.393c-.673-.673-.57-4.11.18-6.026.514-1.31.852-1.065 2.627 1.912 1.496 2.51 1.789 3.574 1.1 4.012-1.16.738-3.218.791-3.907.102m-149.341-5.281c-.783-.944-.816-1.665-.144-3.14 1.05-2.305 2.441-2.423 4.89-.413 1.487 1.22 1.67 1.765.977 2.907-1.113 1.831-4.428 2.206-5.723.646m-2.989 10.211c-1.077-1.297-.34-5.965.94-5.961.48.002 2.03.708 3.444 1.57 3.598 2.194 3.235 4.92-.7 5.25-1.693.141-3.133-.194-3.684-.859m26.038.458c-2.49-.378-2.591-1.182-.61-4.872 1.008-1.878 1.574-2.355 1.839-1.55.405 1.23 1.295 7.059 1.048 6.86-.08-.063-1.105-.26-2.277-.438"/></svg>
