<svg xmlns="http://www.w3.org/2000/svg" version="1.0" preserveAspectRatio="xMidYMid" viewBox="18.1 22.28 270 270"><ellipse style="fill:#fff;stroke-width:1" cx="153.124" cy="157.544" rx="134.663" ry="134.641"/><path d="M153.714 22.28c-2.452-.014-4.504.062-5.86.249-3.18.374-3.646.84-6.265 6.17-4.02 8.135-4.957 12.623-4.957 22.44 0 15.241 4.115 30.483 13.186 48.81 5.891 11.78 14.683 24.776 22.725 33.753l4.862 5.235.188-9.63c.28-18.98 6.732-35.343 18.983-47.592 12.625-12.81 25.343-18.607 42.457-19.542l10.193-.56-5.704-5.33c-16.552-15.242-42.924-28.237-64.9-31.977-6.593-1.122-17.553-1.982-24.908-2.026m-15.672 23.134q.087-.005.18.116c.28.28.375 1.122.094 1.776-.28.748-.562.468-.562-.56-.073-.804.083-1.322.288-1.332m29.076 142.236 7.014 6.546c17.207 16.082 34.322 26.274 53.025 31.697 10.1 2.992 30.767 2.993 38.81.188l5.329-1.965-1.028 1.965c-5.144 9.724-17.675 24.87-27.962 33.94-15.617 13.557-39.651 26.274-54.614 28.799l-3.74.654 4.208-2.15c4.862-2.524 20.573-17.672 20.573-19.916 0-1.029-.842-1.496-2.805-1.496-3.835 0-11.036-2.805-16.273-6.452-2.431-1.683-14.214-14.026-26.277-27.396l-21.883-24.31 12.812-10.004zm-49.914 38.431c.871-.06 3.355 2.787 15.874 17.39 23.473 27.21 27.4 34.221 25.624 45.068l-.654 3.74-13.748-.468c-11.503-.374-15.335-.935-24.22-3.366-16.739-4.675-37.22-14.492-46.946-22.533-2.992-2.43-3.085-2.806-1.682-3.928.842-.655 11.221-8.695 23.098-17.858 11.783-9.07 21.789-17.016 22.163-17.577.152-.247.269-.452.491-.468M22.451 125.12c-.42.013-.897.51-1.125 1.195-1.403 4.862-2.617 14.119-3.085 24.217-1.683 34.875 11.877 73.865 34.134 97.801l4.02 4.396 23.753-18.7c13.092-10.285 24.034-18.982 24.221-19.356s-9.538-11.406-21.602-24.497c-12.157-13.09-30.393-33.006-40.586-44.133-10.287-11.127-18.985-20.476-19.452-20.85a.5.5 0 0 0-.278-.073m83.729-93.807-.034.005c-.467 0-4.302 1.589-8.697 3.459-13.373 5.89-23.286 12.25-35.443 22.535C52.56 65.447 36.103 86.484 36.85 89.57c.187.748 15.055 17.577 33.01 37.587 18.049 19.915 38.342 42.542 45.263 50.116 6.826 7.573 12.811 13.838 13.185 13.838s5.986-4.301 12.438-9.63l11.597-9.537-9.259-11.688c-22.63-28.518-34.414-51.425-40.212-78.54-3.46-16.27-2.338-38.336 2.525-47.686.815-1.54 1.104-2.73.781-2.717" style="fill:#f37021;stroke-width:.935086"/><path d="M236.742 87.43c4.606.035 9.211.503 12.578 1.391 21.134 5.423 32.917 20.29 37.592 47.404 2.806 16.176.376 47.312-4.487 57.503-2.432 5.05-17.395 7.294-30.207 4.396-8.79-1.964-23.005-8.883-31.795-15.709-29.364-22.534-36.658-61.803-15.524-83.028 5.611-5.516 11.596-8.882 19.264-10.752 3.367-.842 7.974-1.24 12.58-1.205" style="fill:#f37021;stroke-width:.935086"/></svg>
