<svg xml:space="preserve" style="clip-rule:evenodd;fill-rule:evenodd;stroke-linejoin:round;stroke-miterlimit:2" xmlns="http://www.w3.org/2000/svg" viewBox="0 0 200.43 200"><path style="clip-rule:evenodd;fill:#fff;fill-rule:evenodd;stroke-linejoin:round;stroke-miterlimit:2" d="M15.569 10.379H185.23v179.242H15.569z"></path><path d="M0 0h-34.943c-4.237 0-7.675-3.521-7.675-7.87v-34.596c0-4.309 3.37-7.808 7.56-7.87l35.033-.001c4.237 0 7.683 3.522 7.683 7.871L7.675-7.87C7.675-3.521 4.236 0 0 0m-30.79-46.304-1.907-.023c-2.309 0-4.173 1.901-4.173 4.237l-.014.337v31.948l.014 1.722c.093 2.26 1.808 4.086 4.058 4.086h3.873c3.517 0 6.361-3.055 6.361-6.653 0-1.787-.7-3.4-1.832-4.579l-9.883-10.024 9.267-9.44c1.19-1.234 1.91-2.853 1.91-4.622 0-3.859-3.429-6.989-7.674-6.989m28.49.029-17.279.005s1.998 4.322 1.998 6.993c0 3.257-1.089 6.172-2.794 8.096l-5.907 6.026 6.024 6.226c1.803 1.694 2.993 4.691 2.993 8.1 0 2.701-.746 5.094-1.954 6.832h4.189c3.514 0 6.361-3.055 6.361-6.653 0-1.787-.697-3.4-1.826-4.579l-9.7-9.922L-.055-45.69c-.642-.402-1.444-.585-2.245-.585m4.215 6.415L-12.52-25.148l6.874 6.984c1.401 1.755 2.293 4.39 2.293 7.335 0 2.717-.76 5.173-1.973 6.91l3.073-.096c2.305 0 4.18-1.895 4.18-4.238z" style="fill:#00529c;fill-rule:nonzero" transform="matrix(3.98517 0 0 -3.97324 169.835 -.003)"></path></svg>
