<?xml version="1.0" encoding="UTF-8"?>
<svg xmlns="http://www.w3.org/2000/svg"
     version="1.1"
     viewBox="0 0 109.22 109.22"
     width="109.22"
     height="109.22">

  <path fill="#008CEB" fill-rule="evenodd"
        d="M54.61 109.22C24.41 109.22 0 84.81 0 54.61 0 24.41 24.41 0 54.61 0c30.2 0 54.61 24.41 54.61 54.61 0 30.2-24.41 54.61-54.61 54.61z"/>

  <path fill="#FFFFFF"
        d="M86.43 54.84v15.37c0 1-.43 1.21-1.27.72q-.42-.25-.85-.49-.43-.24-.87-.46-.44-.22-.88-.43-.45-.21-.9-.4-1.36-.54-2.78-.91-1.42-.37-2.87-.57-1.45-.19-2.92-.2-1.46-.02-2.92.15-1.59.21-3.17.51-1.58.3-3.14.69-1.56.39-3.09.87-1.54.48-3.04 1.05c-4 1.35-7.92 2.81-12 3.94q-1.27.38-2.56.65-1.29.28-2.6.45-1.3.17-2.62.24-1.32.07-2.64.03-1.46-.06-2.9-.3-1.45-.24-2.85-.68-1.39-.43-2.71-1.04-1.33-.62-2.56-1.4-.31-.19-.56-.45-.25-.26-.43-.58-.17-.32-.25-.67-.08-.36-.07-.72 0-15.1 0-30.2c0-.49 0-1.07.44-1.32.44-.25.89.16 1.27.41q1.34.9 2.79 1.59 1.46.69 3.01 1.15 1.54.46 3.14.67 1.6.22 3.21.19 1.16-.05 2.31-.18 1.15-.13 2.29-.34 1.14-.21 2.26-.5 1.12-.3 2.22-.67c4.16-1.29 8.18-3 12.27-4.45q1.19-.46 2.4-.88 1.21-.41 2.43-.79 1.23-.37 2.46-.71 1.23-.33 2.48-.62 2.14-.5 4.33-.55 2.2-.05 4.36.34 2.16.4 4.19 1.24 2.03.83 3.85 2.06.42.26.75.61.34.36.57.79.23.43.34.91.11.47.09.96 0 7.5 0 15z"/>

</svg>
