<svg xmlns="http://www.w3.org/2000/svg" viewBox="6.5 4.69 91.63 103.31"><defs><linearGradient id="b" x1="28.407" y1="18.22" x2="86.469" y2="76.282" gradientTransform="scale(.80086 1.24866)" gradientUnits="userSpaceOnUse"><stop offset="0%" stop-color="#e3f2fd"></stop><stop offset="100%" stop-color="#bbdefb"></stop></linearGradient><filter id="a" x="-.063" y="-.063" width="1.125" height="1.125"><feDropShadow dx="2" dy="4" stdDeviation="3" flood-opacity=".15"></feDropShadow></filter></defs><g filter="url(#a)"><rect x="22" y="16" width="56" height="92" rx="8" fill="#64b5f6" opacity=".6"></rect><rect x="18" y="12" width="56" height="92" rx="8" fill="#fff" stroke="#1565c0" stroke-width="4" stroke-linejoin="round"></rect><rect x="24" y="24" width="44" height="70" rx="4" fill="url(#b)" stroke="#1565c0" stroke-width="2.5" style="fill:url(#b)"></rect><rect x="38" y="16" width="16" height="4" rx="2" fill="#1565c0"></rect><rect x="28" y="28" width="36" height="14" rx="3" fill="#1565c0"></rect><text x="46" y="38" font-family="'Segoe UI', sans-serif" font-weight="bold" font-size="9" fill="#fff" text-anchor="middle">Rp</text><circle cx="34" cy="35" r="2.5" fill="#90caf9"></circle><rect x="28" y="46" width="36" height="6" rx="2" fill="#90caf9" opacity=".7"></rect><rect x="28" y="56" width="24" height="6" rx="2" fill="#90caf9" opacity=".7"></rect><rect x="28" y="66" width="30" height="6" rx="2" fill="#90caf9" opacity=".7"></rect><g transform="translate(28 76)" fill="#1565c0"><rect width="8" height="8" rx="1.5"></rect><rect x="12" width="8" height="8" rx="1.5"></rect><rect y="10" width="8" height="8" rx="1.5"></rect><rect x="12" y="10" width="8" height="8" rx="1.5"></rect></g><circle cx="46" cy="99" r="2.5" fill="#1565c0"></circle></g><g fill="none" stroke="#2196f3" stroke-width="3" stroke-linecap="round"><path d="M69.973 23.244q10.253-4.782 15.035 5.472"></path><path d="M68.266 16.238q15.38-7.173 22.553 8.208" opacity=".7"></path><path d="M66.559 9.231q20.508-9.562 30.07 10.945" opacity=".4"></path></g><g filter="url(#a)" stroke-width="3"><circle cx="20" cy="90" r="12" fill="#c8e6c9" stroke="#2e7d32"></circle><path fill="none" stroke="#1b5e20" stroke-linecap="round" stroke-linejoin="round" d="m15 90 4 4 7-8"></path></g></svg>
