<svg xmlns="http://www.w3.org/2000/svg" version="1.1" id="Layer_1" x="0" y="0" xml:space="preserve" viewBox="0 0 37.4 37.4"><style id="style1">.st0{fill:#00aed6}</style><circle style="fill:#fff;stroke-width:1.24536" id="path3" cx="18.799" cy="18.799" r="18.5"/><path class="st0" d="M18.7 0C8.4 0 0 8.4 0 18.7s8.4 18.7 18.7 18.7S37.4 29 37.4 18.7C37.5 8.4 29.1 0 18.7 0m10.5 24.5c-.2 2-1.7 3.5-3.6 3.9-4.3.5-8.7.5-13.1 0-2.2-.4-3.9-2-4.3-4.2q-.9-5.55 0-11.1C8.5 11.2 10 9.5 12 9c3.5-.6 7.1-.6 10.6 0 1.6.4 2.7 1.8 2.7 3.4H13.2c-.4 0-.8.4-.7.8 0 .4.4.8.8.7h12.2c2.2.1 4 1.9 4.2 4.1 0 2.3-.1 4.4-.5 6.5" id="path1"/><path class="st0" d="M25 18.7c-.6 0-1.2.5-1.2 1.2 0 .3.1.6.4.9v.7c0 .4.3.8.8.8s.8-.3.8-.8v-.7c.2-.2.4-.5.4-.9 0-.7-.6-1.2-1.2-1.2" id="path2"/></svg>
