<svg id="Layer_1" data-name="Layer 1" version="1.1" xml:space="preserve" xmlns="http://www.w3.org/2000/svg" viewBox="1.82 2.35 52.33 55.07"><defs id="defs1"><style id="style1">.d{fill:#002855}</style></defs><g id="g3" transform="matrix(.04547 0 0 .04381 -14.689 48.608)"><path fill-rule="evenodd" d="M540.709-225.48c-11.139 0-21.771-2.067-31.897-5.376q-15.19-4.963-27.34-14.889c-7.595-6.203-13.67-13.647-17.721-21.919-4.557-8.271-6.582-17.37-6.582-26.055v-496.284c-.506-18.197 8.1-35.98 23.796-49.215 15.695-12.82 37.466-20.265 59.744-20.265s44.048 7.445 59.743 20.265c15.695 13.234 24.302 31.018 23.796 49.215v496.284c0 8.685-2.025 17.784-6.582 26.055-4.05 8.272-10.126 15.716-17.72 21.92q-12.151 9.926-27.34 14.888c-10.127 3.309-20.759 5.376-31.897 5.376" id="path1-6" style="fill:#9ddcf9;stroke-width:4.57593"></path><path fill-rule="evenodd" d="M1278.184-225.48c-11.139 0-21.771-1.654-31.897-5.376q-15.948-4.963-27.34-14.889c-7.595-6.203-14.177-13.647-18.227-21.919q-6.075-12.406-6.076-26.055v-495.87c-.506-18.197 8.101-35.981 23.796-49.215 15.696-12.82 36.96-20.265 59.744-20.265 22.277 0 43.542 7.444 59.237 20.265 15.695 13.234 24.302 31.018 24.302 49.215v495.87c0 8.685-2.531 17.784-6.581 26.055s-10.127 15.716-18.227 21.92c-7.595 6.617-16.708 11.58-26.834 14.888-10.126 3.309-21.265 5.376-31.897 5.376" id="path2-7" style="fill:#00acdb;stroke-width:4.57593"></path><path fill-rule="evenodd" d="M911.946-26.552c-11.138 0-21.77-1.655-31.897-5.377-10.126-3.308-19.24-8.271-27.34-14.475q-11.392-9.925-18.227-22.333-6.075-12.407-6.075-26.054v-893.726c.506-18.197 9.113-35.153 24.808-47.56 15.696-12.82 36.96-19.852 58.731-19.852s43.036 7.031 58.731 19.852c15.19 12.407 24.302 29.363 24.809 47.56V-94.79c0 9.098-2.532 17.783-6.582 26.054q-6.075 12.408-18.227 22.333c-7.594 6.204-16.708 11.167-26.834 14.475-10.126 3.722-21.264 5.377-31.897 5.377" id="path3-5" style="fill:#0256a7;stroke-width:4.57593"></path><path fill-rule="evenodd" class="d" d="M631 59.1c0-1.5.2-2.9.8-4.2.5-1.3 1.3-2.5 2.3-3.6 1-1 2.2-1.8 3.5-2.4q1.95-.75 4.2-.9c1.4 0 2.9.3 4.2.8q2.1.9 3.6 2.4c1.1 1 1.9 2.3 2.4 3.6.6 1.4.8 2.8.8 4.3v129.1c.1 1.5-.2 2.9-.7 4.3-.5 1.3-1.3 2.6-2.3 3.6q-1.5 1.5-3.6 2.4c-1.3.5-2.7.8-4.2.8-1.4 0-2.9-.2-4.2-.8-1.4-.5-2.6-1.4-3.6-2.4q-1.65-1.5-2.4-3.6c-.6-1.3-.8-2.8-.8-4.3z" id="path4"></path><path fill-rule="evenodd" class="d" d="M837.5 188.3c.1 2.9-1.1 5.7-3.1 7.8-2.1 2.1-4.9 3.3-7.8 3.3-3 0-5.8-1.2-7.8-3.3-2.1-2.1-3.2-4.9-3.1-7.8v-15.8c-12 17.6-29.3 28.5-56.2 28.5-35.2 0-70.1-27.8-70.1-76v-.6c0-47.9 34.9-76.3 70.1-76.3 27.2 0 44.8 10.6 56.2 27.1V11.1c-.1-1.5.1-2.9.7-4.3.5-1.3 1.3-2.5 2.3-3.6 1-1 2.2-1.8 3.5-2.4 1.4-.5 2.8-.8 4.2-.8 1.5 0 2.9.2 4.3.8 1.3.5 2.6 1.4 3.6 2.4s1.9 2.3 2.4 3.6c.5 1.4.8 2.8.8 4.3zm-125.7-64.1v.5c0 34.6 24.1 56.8 51.6 56.8 27.3 0 53.1-23 53.1-56.8v-.5c0-33.8-25.8-56.5-53.1-56.5-28.3 0-51.6 21-51.6 56.5" id="path5"></path><path fill-rule="evenodd" class="d" d="M1405.2 182.3q-.9-.7-1.7-1.6-.7-.9-1.2-1.9t-.8-2.2q-.3-1.1-.3-2.2c0-1.3.3-2.5.8-3.7.5-1.1 1.2-2.2 2.1-3 .9-.9 2-1.6 3.1-2 1.2-.5 2.4-.7 3.7-.7q.7 0 1.4.1t1.4.3 1.3.5q.7.4 1.3.8 5 3.7 10.6 6.5 5.5 2.9 11.4 4.8 6 2 12.1 3.1t12.4 1.2c17.6 0 30.4-9.1 30.4-23.3v-.5c0-14.8-17.4-20.4-36.7-25.9-22.9-6.5-48.5-14.4-48.5-41.4v-.5c0-25.3 21-42 50-42q6.1.1 12.1 1 6.1.8 12 2.4t11.6 3.9q5.7 2.2 11.1 5.2 1.2.7 2.2 1.6 1 1 1.7 2.2t1.1 2.5q.4 1.4.4 2.7c0 1.3-.3 2.5-.8 3.7-.5 1.1-1.2 2.2-2.1 3-.9.9-2 1.6-3.1 2-1.2.5-2.4.7-3.7.7q-.6 0-1.2-.1-.6 0-1.3-.2-.6-.1-1.1-.3-.6-.3-1.2-.5-4.3-2.6-8.9-4.7-4.7-2-9.5-3.5-4.9-1.4-9.9-2.2-4.9-.8-10-1c-17.3 0-28.4 9.1-28.4 21.3v.6c0 13.9 18.2 19.3 37.8 25.2 22.7 6.8 47.1 15.6 47.1 42v.6c0 27.8-23 43.9-52.2 43.9q-7.6-.1-15-1.4-7.5-1.2-14.7-3.6-7.1-2.3-13.9-5.7-6.7-3.4-12.9-7.7" id="path6"></path><path fill-rule="evenodd" class="d" d="M1369.7 109.9c0-33-28.9-61.8-63.8-61.8-8.4 0-16.7 1.7-24.5 4.9-7.7 3.2-14.8 7.9-20.7 13.8-6 6-10.7 13-13.9 20.8-3.2 7.7-4.9 16-4.9 24.4v75.6c0 1.5.3 3.1.9 4.5.5 1.4 1.4 2.7 2.5 3.7 1 1.1 2.3 2 3.7 2.5q2.25.9 4.5.9c1.5 0 3-.3 4.4-.9s2.6-1.4 3.7-2.5c1-1.1 1.9-2.4 2.4-3.8.6-1.4.8-2.9.7-4.4v-77.8c0-10.8 4.4-21.3 12.1-29s18.1-12 29-12 21.4 4.3 29.1 12 12 18.2 12 29v77.8c-.1 3.1 1.1 6 3.2 8.2 2.2 2.2 5.1 3.4 8.2 3.4s6-1.2 8.1-3.4c2.2-2.2 3.4-5.1 3.3-8.2 0-3 .2-70.6 0-77.8z" id="path7"></path><path fill-rule="evenodd" class="d" d="M1203 188.8c0 2.8-1.1 5.4-3 7.3-2 2-4.6 3.1-7.4 3.1-2.7 0-5.4-1.1-7.3-3.1-1.9-1.9-3-4.5-3-7.3V172c-2.9 4.5-6.4 8.7-10.4 12.3-3.9 3.6-8.3 6.7-13 9.3q-7.2 3.75-15 5.7c-5.2 1.2-10.6 1.8-16 1.7-27.2 0-53.7-15.6-53.7-45.7v-.5c0-30.9 25.5-47.4 62.7-47.4q5.7-.1 11.4.3t11.4 1.2q5.6.7 11.2 1.9t11.1 2.8v-1.8c0-22.7-20.1-41.1-42.8-41.1h-9.7c-2.7 0-5.3-1.1-7.2-3.1-1.9-1.9-2.9-4.5-2.9-7.2s1-5.3 2.9-7.2c1.9-2 4.5-3.1 7.2-3.1h9.8c7.9 0 15.7 1.4 23.1 4.3s14.1 7.1 20 12.4c5.8 5.4 10.6 11.7 14.1 18.8s5.7 14.8 6.4 22.7h.1zm-20.7-58.9v-.1q-5.3-1.4-10.7-2.5-5.3-1.1-10.7-1.9-5.4-.7-10.9-1.2-5.4-.5-10.9-.6c-27.5 0-42.8 11.9-42.8 30.3v.6c0 18.4 15.7 26.9 35.5 26.9 25.3 0 50.5-24.7 50.5-51.5" id="path8"></path><path fill-rule="evenodd" class="d" d="M1070 60.4c0-1.4-.2-2.7-.7-4-.6-1.2-1.3-2.4-2.3-3.3-1-1-2.1-1.8-3.3-2.3-1.3-.5-2.6-.8-4-.8h-7.1c-8.4 0-16.7 1.7-24.4 4.9-7.8 3.2-14.8 7.9-20.8 13.9-5.9 5.9-10.6 12.9-13.8 20.7-3.2 7.7-4.9 16.1-4.9 24.4v73.7c0 1.5.3 3.1.8 4.5.6 1.4 1.5 2.7 2.5 3.7 1.1 1.1 2.4 2 3.8 2.5q2.1.9 4.5.9c1.5 0 3-.3 4.4-.9s2.6-1.4 3.7-2.5c1-1.1 1.8-2.4 2.4-3.8.5-1.4.8-2.9.7-4.4v-75.8c0-5.4 1.1-10.8 3.1-15.7 2.1-5 5.1-9.6 8.9-13.4 3.9-3.8 8.4-6.8 13.4-8.9 4.9-2 10.3-3.1 15.7-3.1h7.1c1.3 0 2.7-.3 3.9-.8 1.3-.5 2.4-1.3 3.4-2.2 1-1 1.7-2.1 2.2-3.4.6-1.2.8-2.6.8-3.9" id="path9"></path><path fill-rule="evenodd" class="d" d="M952.4 59.9c0-1.3-.2-2.6-.7-3.7-.5-1.2-1.2-2.3-2.1-3.2s-1.9-1.6-3.1-2.1c-1.2-.4-2.4-.7-3.7-.7h-38.3V11.7c0-1.5-.3-2.9-.8-4.3-.6-1.4-1.4-2.6-2.4-3.7s-2.2-2-3.5-2.6c-1.4-.6-2.8-1-4.3-1.1q-2.1 0-4.2.9c-1.3.5-2.5 1.4-3.5 2.4q-1.5 1.5-2.4 3.6c-.5 1.3-.8 2.8-.7 4.2V159c0 29.8 17.8 41.4 41.4 41.4q2.7.1 5.5-.1 2.7-.3 5.5-.8 2.7-.5 5.3-1.2 2.7-.8 5.2-1.8 1.4-.5 2.5-1.3 1.2-.8 2-2 .9-1.1 1.3-2.5.5-1.3.5-2.7c0-1.3-.3-2.5-.7-3.6-.5-1.1-1.2-2.2-2.1-3-.8-.9-1.9-1.6-3-2.1-1.1-.4-2.3-.7-3.6-.7q-1.6.4-3.3.8-1.6.3-3.3.6-1.7.2-3.3.4l-3.4.2c-14.8 0-24.7-6.5-24.7-24.4V69.5h38.3c1.3 0 2.5-.3 3.7-.7 1.2-.5 2.2-1.2 3.1-2.1s1.6-2 2.1-3.2c.5-1.1.7-2.4.7-3.6" id="path10"></path><path fill-rule="evenodd" class="d" d="M524.5 48a60.6 60.6 0 0 0-28.4 7.1c-4.4 2.3-8.5 5.1-12.2 8.4s-6.9 7-9.7 11.1c-2.8-4.1-6.1-7.8-9.7-11.1-3.7-3.3-7.7-6.1-12.1-8.4-4.3-2.3-8.9-4-13.7-5.2s-9.6-1.8-14.6-1.8c-8 0-15.9 1.6-23.4 4.7-7.4 3.1-14.1 7.6-19.8 13.2-5.7 5.7-10.2 12.5-13.3 19.9s-4.6 15.4-4.6 23.4v79c-.1 1.4.2 2.9.8 4.2q.75 2.1 2.4 3.6 1.5 1.65 3.6 2.4c1.3.6 2.8.8 4.2.8 1.5 0 2.9-.3 4.2-.8q2.1-.9 3.6-2.4c1-1 1.8-2.3 2.3-3.6.5-1.4.8-2.8.7-4.2v-81.1c0-10.4 4.2-20.4 11.5-27.8 7.4-7.4 17.4-11.5 27.8-11.5s20.4 4.1 27.8 11.5 11.5 17.4 11.5 27.8v72c0 2.9 1.2 5.7 3.2 7.8 2.1 2 4.8 3.2 7.7 3.2s5.7-1.2 7.8-3.2c2-2.1 3.2-4.9 3.2-7.8l-.1-72.1c0-10.4 4.1-20.4 11.5-27.8s17.4-11.5 27.8-11.5 20.4 4.1 27.8 11.5 11.5 17.4 11.5 27.8v81c0 2.9 1.2 5.7 3.2 7.8 2.1 2 4.8 3.2 7.7 3.2s5.7-1.2 7.8-3.2c2-2.1 3.2-4.9 3.2-7.8v-78.8c0-8-1.6-16-4.7-23.4s-7.6-14.2-13.2-19.8c-5.7-5.7-12.5-10.2-19.9-13.3s-15.3-4.7-23.4-4.8" id="path11"></path></g></svg>
