<svg version="1.0" preserveAspectRatio="xMidYMid" xmlns="http://www.w3.org/2000/svg" viewBox="15 16.4 303.4 300.53"><ellipse style="fill:#fff;stroke-width:4.98724" cx="165.489" cy="167.876" rx="143.222" ry="139.588"></ellipse><g fill="#e82020"><path d="M143.5 17.5C116.1 22 96.7 30.2 74.2 46.9c-57.1 42.5-75.3 119.7-44 186.7 3.3 7.1 14.6 23.7 21.4 31.4 11.3 12.9 31.5 28.5 46.3 35.9 13.7 6.8 34.9 12.9 52.5 15.1 25.8 3.3 61-2.4 83.9-13.6 16.1-7.8 37.2-24.1 47.7-36.9 17.6-21.3 27.6-41.1 33.6-67.1 2.5-10.7 2.8-13.8 2.8-30.4.1-21-1.2-29.4-7-47.8-12.3-38.5-40.6-70.8-78.9-90-9.4-4.7-24.5-9.5-36.5-11.8-12.1-2.2-41.1-2.7-52.5-.9m6.8 58.2c4.7 4.3.1 13.3-6.8 13.3-2.5 0-4.4-.8-6-2.5-2.9-2.9-3.1-4.7-.8-8.6 2.9-4.9 9.4-5.9 13.6-2.2m75.6 1.8c.3.3-.4 7.9-1.5 16.8-1.2 8.9-2 16.3-2 16.4.1.1 4.2-3.8 9.1-8.7l9-9h7.8c4.5 0 7.7.4 7.5.9-.1.6-4.1 5.1-8.6 10.1l-8.4 9 7.4 13.8c4.1 7.5 8.1 14.7 8.8 15.9 2.3 3.6-.1 5.3-7.6 5.3-6.1 0-6.5-.2-7.7-2.7-.6-1.5-1.9-3.5-2.7-4.3-.8-.9-3.5-5.5-6-10.3s-4.8-8.7-5.1-8.7-1.7 1-3.1 2.3c-1.9 1.8-2.7 3.8-3.2 8.3-1.2 9.8-.8 9.4-8.6 9.4-3.8 0-7.1-.3-7.3-.8-.3-.4.1-4.5.8-9.2s2.8-19.2 4.6-32.4l3.3-23.9 6.4.7c3.6.3 6.7.8 7.1 1.1M107 79.7c0 .5-.5 2.6-1 4.8-.4 2.2-2 12-3.5 21.8-2.1 14.2-2.4 18.2-1.4 19.3 1 1.2 3.7 1.5 12.8 1.3l11.6-.1-.2 5.8c-.3 9.4 1 8.8-19.2 8.1-10.2-.3-18.8-1-20-1.6-1.1-.7-2.4-2.3-2.7-3.7-.5-2 4.5-46.4 6.2-54.2.4-2.1.9-2.2 8.9-2.2 4.7 0 8.5.3 8.5.7m42.5 13.4c.3.3-.4 7.1-1.5 15-1.8 12.8-2.5 17.4-4.6 29.8l-.5 3.3-6.9-.4c-3.8-.2-7.1-.6-7.3-.8-.5-.5 5.8-44.2 6.6-46.4.5-1.2 12.9-1.7 14.2-.5m40.8.3c4.3 1.7 8.3 6.6 9.1 11 .4 1.9-.3 10.5-1.4 19.1s-2 16.3-2 17.2c0 1.3-1 1.5-7.2.8-4-.3-7.4-.8-7.6-.9-.1-.2.7-7.2 1.9-15.6 1.5-11 1.8-15.8 1.1-17.5-1.1-2.5-5.6-3.8-10-2.9-2.9.6-2.9.7-4.6 12.7-1 6.7-2.1 14.7-2.4 17.7l-.7 5.5-7.2.3c-6.5.3-7.3.1-7.3-1.5 0-3.4 7.1-44.8 7.8-45.5 2-1.9 26.1-2.3 30.5-.4m-27.6 54.7c3.4 1.3 4.3 2.6 4.3 6.2 0 4-4.9 8.7-9 8.7-3.7 0-8-3.9-8-7.2 0-4.2 4.3-8.5 8.7-8.7.6-.1 2.4.4 4 1m-36 2.7c.6.4 3.4 13.1 6.2 28.2s5.3 29 5.7 30.7l.7 3.3h-16.1l-.7-6-.7-6H99.9l-2.5 5.5-2.5 5.5h-8c-4.3 0-7.9-.3-7.9-.6s6.8-14 15.1-30.5l15.1-29.8 5.1-.4c10-.7 11.2-.7 12.4.1m116.9 6.5c.4.4-.5 7.8-1.9 16.5-1.5 8.6-2.7 16.9-2.7 18.4 0 1.6-.4 2.8-.9 2.8s-1.2 1.1-1.5 2.5c-.6 2.2-1.1 2.5-5.6 2.5h-5v-4.8c0-2.6.7-11.9 1.5-20.7s1.5-16.6 1.5-17.4c0-1 1.6-1.2 6.9-.9 3.9.2 7.3.7 7.7 1.1m-31.3 9.8c2.1.5 4.1 1.7 4.4 2.4.5 1.5-4.7 39.9-5.7 41.5-.8 1.3-13.5 2.9-22.5 2.9-4.7.1-8.3-.6-11.1-1.8-17.7-8.1-11.4-40.9 8.9-46.2 4-1 20.9-.3 26 1.2m-48.1.4c.6.6-5.6 43.6-7.1 49.3-2.3 8.3-9.8 13.2-20.2 13.2-3.1 0-3.8-.4-4.3-2.6-.6-2.3 0-3.3 4.4-7.3 6.2-5.6 6.7-7.3 10.6-34.2l2.8-18.9h6.6c3.7 0 6.9.2 7.2.5m71.5 38.7c2.6 1.9 3.3 3 3.3 5.7 0 7.7-11.1 12.1-16.5 6.6-2.8-2.7-3-3.8-1.4-8.4 2.1-5.9 8.9-7.7 14.6-3.9m18.6 28.5c7 .3 12.7 1 12.7 1.5 0 .4-4 .8-8.9.8-5 0-9.3.4-9.6 1-.3.5-4.6 1-9.5 1-27.5 0-92.3 11-136.2 23.2-15.5 4.3-17.6 4.3-22.2.7-2.1-1.6-2.6-2.8-2.4-5.3.3-2.8.8-3.3 5.8-4.9 14.5-4.6 68.1-13.7 81.1-13.7 3.8 0 6.9-.4 6.9-.9 0-.4 7.1-1.4 15.8-2 8.6-.6 17.5-1.3 19.7-1.5 8-.6 34.3-.6 46.8.1"></path><path d="m111.4 177.1-5.1 10.4 6.5.3c3.5.2 6.6.1 6.8 0 .3-.3-2.3-17.9-2.9-20.2-.2-.5-2.6 3.8-5.3 9.5m75.7 3.4c-3.6 3.1-5.5 8.4-4.8 13.2 1 5.7 3.1 7.3 9.9 7.3 3.2 0 5.8-.3 5.8-.8 0-.4.7-5 1.5-10.2s1.5-10.1 1.5-10.8c0-.8-1.7-1.2-5.4-1.2-4.4 0-6 .5-8.5 2.5"></path></g></svg>
