<svg xmlns="http://www.w3.org/2000/svg" xmlns:svg="http://www.w3.org/2000/svg" version="1.0" preserveAspectRatio="xMidYMid" id="svg3" xml:space="preserve" viewBox="22.87 27.3 290 290"><defs id="defs3" fill="#000000"></defs><circle style="fill:#003c78;stroke-width:1.32888" id="path45" cx="167.86903" cy="172.29901" r="145"></circle><path style="fill:#feb600;stroke-width:0.587186" d="m 150.8755,164.61639 c -3.67004,-1.85479 -10.24215,-7.92386 -9.8661,-9.11092 0.70076,-2.21201 14.27497,-10.90073 27.77526,-17.77868 8.46702,-4.31365 12.76653,-5.39774 18.78994,-4.73773 4.55901,0.49955 6.35917,1.67079 10.89633,7.0895 4.10288,4.90006 6.28543,6.71276 8.08237,6.71276 1.59772,0 4.59489,-1.32243 20.1615,-8.89576 14.60754,-7.10674 17.00048,-7.75953 23.49874,-6.4105 4.03592,0.83786 6.40993,2.61436 10.53883,7.88634 6.40833,8.18249 6.49117,8.18494 22.99476,0.68083 4.77503,-2.17118 9.74,-4.08953 11.03327,-4.26299 2.19689,-0.29467 2.52306,-0.13626 4.96334,2.41056 2.72704,2.8461 6.14876,8.90267 6.14876,10.88353 0,0.63312 -0.7857,1.7106 -1.746,2.3944 -2.76817,1.97111 -20.57204,10.44524 -23.66604,11.26435 -3.67803,0.97373 -4.43884,0.49603 -10.49965,-6.59253 -5.78665,-6.76791 -7.79485,-8.26789 -11.55259,-8.62896 -5.19406,-0.49909 -11.00667,1.81661 -25.01063,9.96403 -11.46423,6.66982 -13.72163,7.68014 -16.36722,7.32529 -3.13771,-0.42085 -5.83541,-2.71891 -10.51103,-8.95387 -4.75146,-6.33611 -5.68031,-7.13333 -8.86109,-7.60545 -4.85985,-0.72133 -16.04515,3.97114 -31.38206,13.16544 -8.71105,5.22217 -10.63155,5.62074 -15.42069,3.20036 z" id="path37"></path><path style="fill:#ffffff;stroke-width:0.587186" d="m 238.30973,208.03395 -1.52439,-0.23589 -0.38396,-8.87086 c -0.21118,-4.87898 -0.38396,-12.26389 -0.38396,-16.41092 v -7.54005 h 4.11029 4.1103 v 16.73479 16.73479 l -2.20194,-0.088 c -1.21107,-0.0484 -2.88793,-0.19413 -3.72634,-0.32388 z" id="path44"></path><path style="fill:#ffffff;stroke-width:0.587186" d="m 213.11718,191.71102 v -16.73479 h 3.11208 c 3.53449,0 4.52133,0.67831 4.52133,3.10778 v 1.69853 l 2.97878,-2.67818 c 3.22604,-2.90049 6.37381,-3.96879 7.91799,-2.68723 0.64451,0.53489 0.85206,1.60079 0.72755,3.73646 l -0.1742,2.98809 -3.16571,0.38636 c -6.16911,0.75291 -8.27847,4.74656 -8.28951,15.69459 -0.003,2.78175 -0.17173,6.44495 -0.37539,8.14045 l -0.37028,3.08273 h -3.44132 -3.44132 z" id="path43"></path><path style="fill:#ffffff;stroke-width:0.587186" d="m 197.85035,191.71102 v -16.73479 h 3.81671 3.8167 v 16.73479 16.73479 h -3.8167 -3.81671 z" id="path42"></path><path style="fill:#ffffff;stroke-width:0.587186" d="m 169.52689,207.86114 c -9.00932,-2.71275 -13.05276,-15.31136 -8.30761,-25.88498 2.00413,-4.46579 4.60295,-6.79192 8.18893,-7.32967 4.39942,-0.65973 8.87976,0.049 11.12233,1.75954 1.08605,0.82837 2.13948,1.50613 2.34096,1.50613 0.20148,0 0.28517,-3.30056 0.18597,-7.33456 -0.20335,-8.26981 -0.39421,-7.93227 4.48534,-7.93227 h 3.10169 l 0.3734,2.72429 c 0.48479,3.53691 0.47756,29.37436 -0.0103,36.74102 l -0.37761,5.70213 -2.65073,0.39751 c -3.04663,0.45687 -4.22138,-0.50199 -4.22138,-3.44557 v -1.69508 l -2.45717,2.10324 c -3.50039,2.9962 -7.62414,3.93776 -11.77384,2.68827 z m 10.10694,-7.53518 c 2.1384,-1.59368 3.52985,-4.27039 3.91474,-7.5307 0.95442,-8.0847 -4.93987,-14.32412 -11.1002,-11.75017 -3.24701,1.35669 -4.08621,3.15452 -4.37306,9.36846 -0.20456,4.43119 -0.057,5.76991 0.81704,7.41312 2.11037,3.96747 7.18662,5.14859 10.74148,2.49929 z" id="path41"></path><path style="fill:#ffffff;stroke-width:0.587186" d="m 146.14045,204.56595 c -0.0207,-2.22593 -0.23858,-7.80655 -0.48426,-12.40137 -0.49289,-9.21844 -0.85136,-10.12249 -4.4899,-11.32331 -1.50808,-0.49771 -2.38872,-0.44813 -4.0003,0.22523 -3.38469,1.41421 -3.90426,3.17328 -4.63243,15.68359 l -0.64658,11.10853 h -3.71742 -3.71741 v -8.42135 c 0,-4.63174 -0.17308,-12.03028 -0.38463,-16.4412 l -0.38462,-8.01984 h 4.20133 4.20133 v 1.76155 c 0,0.96886 0.15371,1.76156 0.34157,1.76156 0.18786,0 1.55264,-0.99088 3.03284,-2.20195 2.56091,-2.09528 2.87856,-2.19584 6.55786,-2.07602 2.12663,0.0693 4.97365,0.54744 6.32671,1.06262 3.18422,1.21238 4.57722,4.02572 5.50799,11.12409 0.64011,4.88162 0.54131,20.47667 -0.13399,21.15198 -0.16271,0.1627 -1.92589,0.4662 -3.91818,0.67443 l -3.62234,0.37861 z" id="path40"></path><path style="fill:#ffffff;stroke-width:0.587186" d="m 94.749478,207.64808 c -2.483585,-1.13195 -4.111015,-3.37477 -4.931978,-6.79693 -0.609018,-2.53867 -0.552697,-3.1979 0.4709,-5.51191 1.502195,-3.39597 4.658131,-5.27526 11.93904,-7.10946 3.01946,-0.76066 5.95233,-1.57194 6.5175,-1.80284 1.55867,-0.63682 1.24889,-2.9698 -0.58719,-4.42223 -1.45917,-1.15427 -2.09566,-1.24658 -6.60584,-0.95805 -2.745089,0.17561 -5.718283,0.49792 -6.607095,0.71624 -1.452668,0.35682 -1.70803,0.17673 -2.526253,-1.78155 -0.500629,-1.19818 -0.818171,-2.45469 -0.705651,-2.79225 0.917926,-2.75377 15.432599,-3.89228 20.199949,-1.58445 4.96328,2.40269 7.06766,10.87895 6.28246,25.3052 l -0.37284,6.85008 -1.9955,0.37436 c -2.80799,0.52679 -4.09685,-0.0428 -4.82532,-2.13249 l -0.63056,-1.80883 -1.62046,1.06631 c -4.51891,2.97358 -10.484822,3.99145 -14.001162,2.3888 z m 11.902832,-6.21927 c 2.45367,-1.49611 3.22498,-3.05365 3.00607,-6.07032 l -0.17946,-2.4731 -3.22952,0.0267 c -3.83716,0.0317 -7.204788,1.50148 -8.139241,3.55238 -0.982372,2.15607 -0.832197,3.06332 0.772729,4.66825 1.796262,1.79626 5.102482,1.92227 7.769422,0.29613 z" id="path39"></path><path style="fill:#ffffff;stroke-width:0.587186" d="m 35.199939,191.71102 v -16.73479 h 3.260066 c 3.094376,0 3.291276,0.0895 3.874148,1.76155 0.337746,0.96886 0.773829,1.76156 0.969076,1.76156 0.195246,0 1.160273,-0.77763 2.144504,-1.72808 4.119004,-3.97759 10.023511,-3.70124 14.789861,0.69223 l 2.609956,2.40577 2.470596,-2.4124 c 5.144745,-5.02358 10.341857,-4.94345 16.561287,0.25535 l 2.644098,2.21019 v 14.2617 14.26171 h -1.38601 c -0.762306,0 -2.61194,-0.16804 -4.110299,-0.37341 l -2.72429,-0.3734 -0.01332,-5.05807 c -0.01576,-5.98465 -0.959378,-18.82251 -1.483985,-20.18962 -0.202453,-0.52758 -1.27112,-1.25726 -2.374816,-1.62152 -2.640006,-0.87128 -5.887042,0.6498 -7.559835,3.54141 -1.053163,1.82051 -1.213098,3.31214 -1.400828,13.06488 l -0.211926,11.00973 h -3.753391 -3.753392 l -0.01401,-10.42255 c -0.01544,-11.48713 -0.474089,-14.61101 -2.370806,-16.1476 -2.46058,-1.9934 -8.467993,-0.52579 -9.662815,2.36062 -0.35324,0.85335 -1.315552,15.91397 -1.424953,22.30117 l -0.03269,1.90836 h -3.523114 -3.523114 z" id="path38"></path></svg>
