<svg version="1.0" preserveAspectRatio="xMidYMid" xmlns="http://www.w3.org/2000/svg" viewBox="12.65 14.39 303.85 298.16"><path style="fill:#fff" d="M45.134 122.39h242.675v85.35H45.134z"></path><g fill="#4c3494"><path d="M147 14.6C87.5 22.1 37.8 61.7 19.7 116.2c-9.4 28.1-9.4 62.6 0 90.8 3.8 11.4 14.6 32.6 21 41.1 18.5 24.5 42.3 43 69.5 53.8 10.6 4.2 30.6 8.9 43.2 10.1 31.1 3.1 69.7-7.1 97.1-25.5 28.6-19.3 49.2-46.4 59.4-78 5.8-18.1 6.6-23.5 6.6-46 0-22.3-1-29-7-46.8-7.4-22.1-18.9-40.2-36.4-57.7-21.7-21.5-45.9-34.6-76.3-41.1-6.9-1.5-14.2-2.1-27.8-2.4-10.2-.2-20.1-.1-22 .1m-39 115.7c8.8 4.2 13.5 8.9 17.7 17.5 3.3 6.9 3.7 8.5 3.7 15.7-.1 11.6-2.8 18.1-11.3 26.6-5.7 5.7-7.6 6.8-13.9 8.8-13 4.2-26.5 1.2-36.7-8-7.7-7.2-10.8-13.9-11.3-25.4-.3-7.5 0-10 1.8-14.8 4-10.7 12.4-18.8 22.9-22.2 7.3-2.3 20.3-1.5 27.1 1.8m149.7.1c15.3 6.9 23.8 24.1 20.3 41.1-2.4 11.9-9.7 21.1-21 26.4-7.5 3.5-19.8 3.6-28.2.2-7.6-2.9-15.6-10.3-19.3-17.8-2.8-5.4-3-6.6-3-16.8 0-10.1.2-11.4 2.8-16.2 7.3-14 18.6-20.6 34.2-20 6.2.3 9.4 1 14.2 3.1M161 135v5h-9l2 4c1.1 2.2 4.8 11.1 8.1 19.7 3.4 8.7 6.4 16.4 6.8 17.1.4.8 2.7-4.1 5.5-12 2.6-7.3 6-16.7 7.6-20.8l2.7-7.5-3.8-.3-3.9-.3V130h27v4.9c0 4.8-.1 5-3.1 5.3s-3.3.8-7.1 11.3c-3.9 10.6-15.9 43.1-17.4 46.8-.5 1.5-1.7 1.7-7.1 1.5l-6.5-.3-10-23c-5.4-12.7-11.1-25.9-12.6-29.5-2.6-6.2-2.9-6.5-6.5-6.8l-3.7-.3V130h31z"></path><path d="M86.1 141.5c-8.9 2.8-15.3 12.1-15.3 22.4-.1 9.3 4.6 17.2 12.6 21.3 4.9 2.6 13.7 2.9 18.1.5 3.8-2 8.8-7.2 11-11.6 2.3-4.5 2.3-15.7 0-20.2-2.9-5.8-8.5-10.8-13.9-12.4-5.9-1.8-6.8-1.8-12.5 0m151.1-.5c-9.7 2.3-16.6 11.9-16.5 23.2.1 10.8 7.4 20.4 17.3 22.8 16.1 3.9 30.2-13.9 24.5-31-2.4-7.3-7.5-12.6-13.8-14.5-5.5-1.6-6.6-1.7-11.5-.5"></path></g></svg>
