<svg xmlns="http://www.w3.org/2000/svg" width="1137" height="1231" viewBox="0 0 1137 1231"><path fill="#ea5f00" fill-rule="evenodd" d="M311 200a440 440 0 0 1 239-82c86 0 138 8 214 44l19 10 17 10a446 446 0 0 1 215 402l-1 21a479 479 0 0 1-22 103c-26 75-75 149-136 198q-22 19-48 35c-61 36-45 33-109 16-37-11-110-42-146-56q-48-20-103-33c-60-15-94-16-156-16-27 0-42 4-61 6-11-16-27-31-42-57a447 447 0 0 1 120-601m406 175q-8-3-15-9l-14-10c-109-70-249-22-249 89 0 60 29 94 79 119q22 11 45 19c43 14 91 30 80 76-2 11-4 11-11 19-20 19-41 18-65 18-32 0-72-21-96-40l-11-9c-4 3-43 57-44 62 8 12 48 39 63 45 51 22 57 23 113 23 51 0 104-32 123-74 18-39 16-83-6-120-16-25-43-44-69-57l-35-16c-25-9-46-15-69-31-32-24-14-75 38-75 41 0 69 14 101 35 6-12 40-57 42-64"/><path fill="#ea5f00" d="M3 545c0 60-1 76 11 138 8 38 12 47 23 80 10 29 56 123 74 135l18-7 37-15 20-7-38-57a482 482 0 0 1 24-528l13-16 73-76 34-25c69-46 131-72 217-83l56-4a478 478 0 0 1 307 108l17 14 16 14 42 47c61 78 106 179 106 284 0 103-8 139-45 225-8 19-17 33-27 50q-14 24-31 45c-21 26-40 47-66 69l-32 25-12 8-7 5-1 1-3 2c65 0 88-3 146-31 15-7 16-6 26-18l20-25a553 553 0 0 0 17-654l-14-21-15-19-49-53c-57-47-66-60-144-99C755 26 666 1 594 1h-10c-61 0-93 0-157 17a570 570 0 0 0-291 183l-15 18A567 567 0 0 0 3 545"/><path fill="#2672dd" d="M1 1035c0 41 39 61 72 34l12-9 14-10 25-17c42-27 113-56 165-56 72 0 100 1 171 24 39 13 72 29 108 44 111 46 153 62 278 62 96 0 187-42 261-91 28-19 25-77-29-77-14 0-35 17-52 27-64 38-123 56-205 56-161 0-262-98-424-124a442 442 0 0 0-327 69l-40 28c-12 9-29 20-29 40"/><path fill="#2672dd" d="M128 1101c0 33 16 44 47 44 12 0 21-8 30-14 111-74 235 0 336 40 77 31 162 59 249 59h32c36 0 56-1 102-13 26-6 60-13 60-48 0-23-20-43-43-43-12 0-27 7-38 10-80 21-199 8-273-21l-88-34c-126-53-214-94-344-40q-23 9-41 23c-13 8-29 16-29 37"/></svg>
