<svg xmlns="http://www.w3.org/2000/svg" version="1.0" preserveAspectRatio="xMidYMid" viewBox="10.7 12.42 282.6 277.95"><circle style="fill:#fff;stroke-width:1.3301" cx="152.172" cy="149.176" r="130"/><g fill="#f06018"><path d="M135.7 13c-9.6 1.1-26.2 5.1-34.7 8.3-31.8 12-59.5 36.2-74.9 65.7-10.3 19.7-15.4 40.8-15.4 64 0 38.2 14.6 71.8 43.1 99.1 39.1 37.6 92.4 49.7 143.5 32.8 41-13.6 75.5-48 89.1-88.9 5.2-15.8 7-27 6.9-44.5 0-22.4-3.7-38.2-13.7-59-19-39.3-55.4-66.8-100.2-75.5-12.2-2.3-32.5-3.3-43.7-2m60.4 54c3 1.6 4.5 5.6 7 18.8 2.5 13.5 2.4 14.2-3.3 14.2-4.1 0-5.3-2.1-6.7-11.4-.8-4.9-1.9-9-2.8-9.7-1.1-1-3.8-.8-13.1.9-26.7 5-50.8 9.3-69.2 12.2-22.6 3.6-24 4-24 7.4 0 5.7-2 5.6 75.2 5.6h70.7l2.8 2.4 2.8 2.4-.3 25.9c-.6 43.6-2 81.6-3.2 84.8-1.5 4-6.1 7.5-11.3 8.7-2.7.6-28.4.8-71.2.3-73.6-.7-71.3-.5-75.8-6.9-2-2.8-2.2-4.7-2.8-20.6-.4-9.6-.9-38-1.1-63.1l-.3-45.5 2.7-3.6c1.7-2.2 4.4-4.2 7-5.1 5-1.7 104.2-18.4 110.6-18.6 2.4 0 5.2.4 6.3.9"/><path d="M141.5 125.9c-6.4 1.6-12.6 6.3-15.4 11.8-1.5 3-1.4 12.9.3 16.1 3 5.8 8.4 9 23.6 14.1 11.4 3.7 15.4 6 18 10.3s2.5 6.7-.3 10.9c-3.7 5.6-7.8 7.1-18.2 6.7-8.2-.3-9.6-.7-16.2-4.3-7.5-4-8.5-4-9.7.2-2 6.4 18.9 14.6 32.4 12.8 15.2-2.1 24-9.9 24-21.6 0-1.4-1.2-4.9-2.6-7.8-3.4-6.7-9.4-10.8-23.1-15.5-5.6-1.9-11.5-4.2-13-4.9-9.4-4.9-9.3-15.6.2-20.1 5.2-2.5 19-1.9 25.7 1.1 5.1 2.3 6.3 1.9 7-2.7.2-2-.4-2.8-3.2-4.2-7.2-3.5-21.3-4.9-29.5-2.9"/></g></svg>
